<mxfile host="Electron" agent="Mozilla/5.0 (Macintosh; Intel Mac OS X 10_15_7) AppleWebKit/537.36 (KHTML, like Gecko) draw.io/26.1.1 Chrome/132.0.6834.210 Electron/34.3.3 Safari/537.36" version="26.1.1">
  <diagram name="main" id="m0zTKrYATkNEm8Ja8VeW">
    <mxGraphModel dx="799" dy="1621" grid="1" gridSize="10" guides="1" tooltips="1" connect="1" arrows="1" fold="1" page="1" pageScale="1" pageWidth="850" pageHeight="1100" math="0" shadow="0">
      <root>
        <mxCell id="0" />
        <mxCell id="1" parent="0" />
        <mxCell id="m3rVj-qdc9ypze6SkFHS-17" style="edgeStyle=orthogonalEdgeStyle;rounded=0;orthogonalLoop=1;jettySize=auto;html=1;exitX=1;exitY=0.5;exitDx=0;exitDy=0;exitPerimeter=0;strokeWidth=2;" parent="1" source="m3rVj-qdc9ypze6SkFHS-1" target="m3rVj-qdc9ypze6SkFHS-9" edge="1">
          <mxGeometry relative="1" as="geometry" />
        </mxCell>
        <mxCell id="m3rVj-qdc9ypze6SkFHS-1" value="" style="rhombus;whiteSpace=wrap;html=1;rounded=1;fontStyle=1;glass=0;sketch=0;fontSize=12;points=[[0,0.5,0,0,0],[0.5,0,0,0,0],[0.5,1,0,0,0],[1,0.5,0,0,0]];shadow=1;fontFamily=Helvetica;fontColor=default;" parent="1" vertex="1">
          <mxGeometry x="80" y="140" width="40" height="40" as="geometry" />
        </mxCell>
        <mxCell id="m3rVj-qdc9ypze6SkFHS-2" value="" style="rhombus;whiteSpace=wrap;html=1;rounded=1;fontStyle=1;glass=0;sketch=0;fontSize=12;points=[[0,0.5,0,0,0],[0.5,0,0,0,0],[0.5,1,0,0,0],[1,0.5,0,0,0]];shadow=1;fillColor=#0050ef;fontColor=#ffffff;strokeColor=#001DBC;fontFamily=Helvetica;" parent="1" vertex="1">
          <mxGeometry x="810" y="140" width="40" height="40" as="geometry" />
        </mxCell>
        <mxCell id="m3rVj-qdc9ypze6SkFHS-8" value="$ ./llm.bash" style="rounded=1;whiteSpace=wrap;html=1;sketch=0;container=1;recursiveResize=0;verticalAlign=top;arcSize=6;fontStyle=1;autosize=0;points=[];absoluteArcSize=1;shadow=1;strokeColor=#666666;fillColor=#FFFFFF;fontColor=#333333;connectable=0;gradientColor=#FFF2CC;fontFamily=Helvetica;fontSize=11;" parent="1" vertex="1">
          <mxGeometry x="200" y="110" width="242.25" height="110" as="geometry">
            <mxRectangle x="-98" y="-1230" width="99" height="26" as="alternateBounds" />
          </mxGeometry>
        </mxCell>
        <mxCell id="m3rVj-qdc9ypze6SkFHS-9" value="" style="rounded=1;whiteSpace=wrap;html=1;sketch=0;points=[[0,0.5,0,0,0],[1,0.5,0,0,0]];arcSize=50;fontFamily=Helvetica;fontSize=11;fontColor=default;" parent="m3rVj-qdc9ypze6SkFHS-8" vertex="1">
          <mxGeometry x="-13" y="37.5" width="39.25" height="25" as="geometry" />
        </mxCell>
        <mxCell id="m3rVj-qdc9ypze6SkFHS-10" value="" style="rounded=1;whiteSpace=wrap;html=1;sketch=0;points=[[0,0.5,0,0,0],[1,0.5,0,0,0]];fillColor=#1ba1e2;fontColor=#ffffff;strokeColor=#006EAF;arcSize=50;fontFamily=Helvetica;fontSize=11;" parent="m3rVj-qdc9ypze6SkFHS-8" vertex="1">
          <mxGeometry x="220" y="37.5" width="35.25" height="25" as="geometry" />
        </mxCell>
        <mxCell id="m3rVj-qdc9ypze6SkFHS-19" value="✗" style="rounded=1;whiteSpace=wrap;html=1;sketch=0;points=[[0,0.5,0,0,0],[1,0.5,0,0,0]];fillColor=#1ba1e2;fontColor=#ffffff;strokeColor=#006EAF;arcSize=50;fontFamily=Helvetica;fontSize=11;opacity=30;textOpacity=30;" parent="m3rVj-qdc9ypze6SkFHS-8" vertex="1">
          <mxGeometry x="220" y="70" width="35.25" height="25" as="geometry" />
        </mxCell>
        <mxCell id="m3rVj-qdc9ypze6SkFHS-16" style="edgeStyle=orthogonalEdgeStyle;rounded=0;orthogonalLoop=1;jettySize=auto;html=1;exitX=1;exitY=0.5;exitDx=0;exitDy=0;exitPerimeter=0;entryX=0;entryY=0.5;entryDx=0;entryDy=0;entryPerimeter=0;strokeWidth=2;" parent="1" source="m3rVj-qdc9ypze6SkFHS-10" target="m3rVj-qdc9ypze6SkFHS-2" edge="1">
          <mxGeometry relative="1" as="geometry" />
        </mxCell>
        <mxCell id="m3rVj-qdc9ypze6SkFHS-18" value="✗" style="rhombus;whiteSpace=wrap;html=1;rounded=1;fillColor=#0050ef;fontColor=#ffffff;strokeColor=#001DBC;fontStyle=1;glass=0;sketch=0;fontSize=12;points=[[0,0.5,0,0,0],[0.5,0,0,0,0],[0.5,1,0,0,0],[1,0.5,0,0,0]];shadow=1;opacity=30;textOpacity=30;" parent="1" vertex="1">
          <mxGeometry x="810" y="220" width="40" height="40" as="geometry" />
        </mxCell>
        <mxCell id="m3rVj-qdc9ypze6SkFHS-20" style="edgeStyle=orthogonalEdgeStyle;rounded=1;orthogonalLoop=1;jettySize=auto;html=1;exitX=1;exitY=0.5;exitDx=0;exitDy=0;exitPerimeter=0;entryX=0;entryY=0.5;entryDx=0;entryDy=0;entryPerimeter=0;curved=0;dashed=1;" parent="1" source="m3rVj-qdc9ypze6SkFHS-19" target="m3rVj-qdc9ypze6SkFHS-18" edge="1">
          <mxGeometry relative="1" as="geometry">
            <Array as="points">
              <mxPoint x="500" y="193" />
              <mxPoint x="500" y="240" />
            </Array>
          </mxGeometry>
        </mxCell>
        <mxCell id="gw8mgy441jQ1SfUJSTYL-1" value="Five Times" style="rounded=1;whiteSpace=wrap;html=1;container=1;recursiveResize=0;verticalAlign=top;arcSize=6;fontStyle=1;autosize=0;points=[];absoluteArcSize=1;shadow=1;strokeColor=#6c8ebf;fillColor=#dae8fc;fontFamily=Helvetica;fontSize=11;gradientColor=#0050EF;fontColor=default;" vertex="1" parent="1">
          <mxGeometry x="550" y="-70" width="138" height="110" as="geometry">
            <mxRectangle x="-98" y="-1230" width="99" height="26" as="alternateBounds" />
          </mxGeometry>
        </mxCell>
        <mxCell id="gw8mgy441jQ1SfUJSTYL-3" value="" style="rounded=1;whiteSpace=wrap;html=1;sketch=0;points=[[0,0.5,0,0,0],[1,0.5,0,0,0]];fillColor=#1ba1e2;fontColor=#ffffff;strokeColor=#006EAF;arcSize=50;fontFamily=Helvetica;fontSize=11;" vertex="1" parent="gw8mgy441jQ1SfUJSTYL-1">
          <mxGeometry x="-10" y="30" width="36" height="25" as="geometry" />
        </mxCell>
        <mxCell id="gw8mgy441jQ1SfUJSTYL-2" value="" style="rounded=1;whiteSpace=wrap;html=1;sketch=0;points=[[0,0.5,0,0,0],[1,0.5,0,0,0]];arcSize=50;fontFamily=Helvetica;fontSize=11;fontColor=default;" vertex="1" parent="gw8mgy441jQ1SfUJSTYL-1">
          <mxGeometry x="119.25" y="70" width="36.75" height="25" as="geometry" />
        </mxCell>
        <mxCell id="gw8mgy441jQ1SfUJSTYL-4" value="✗" style="rounded=1;whiteSpace=wrap;html=1;sketch=0;points=[[0,0.5,0,0,0],[1,0.5,0,0,0]];fillColor=#1ba1e2;fontColor=#ffffff;strokeColor=#006EAF;arcSize=50;fontFamily=Helvetica;fontSize=11;textOpacity=30;" vertex="1" parent="gw8mgy441jQ1SfUJSTYL-1">
          <mxGeometry x="119.25" y="20" width="36" height="25" as="geometry" />
        </mxCell>
        <mxCell id="gw8mgy441jQ1SfUJSTYL-6" value="$ ./llmwhy.bash" style="rounded=1;whiteSpace=wrap;html=1;sketch=0;container=1;recursiveResize=0;verticalAlign=top;arcSize=6;fontStyle=1;autosize=0;points=[];absoluteArcSize=1;shadow=1;strokeColor=#666666;fillColor=#FFFFFF;fontColor=#333333;connectable=0;gradientColor=#FFF2CC;fontFamily=Helvetica;fontSize=11;" vertex="1" parent="1">
          <mxGeometry x="200" y="-70" width="242.25" height="110" as="geometry">
            <mxRectangle x="-98" y="-1230" width="99" height="26" as="alternateBounds" />
          </mxGeometry>
        </mxCell>
        <mxCell id="gw8mgy441jQ1SfUJSTYL-8" value="" style="rounded=1;whiteSpace=wrap;html=1;sketch=0;points=[[0,0.5,0,0,0],[1,0.5,0,0,0]];fillColor=#1ba1e2;fontColor=#ffffff;strokeColor=#006EAF;arcSize=50;fontFamily=Helvetica;fontSize=11;" vertex="1" parent="gw8mgy441jQ1SfUJSTYL-6">
          <mxGeometry x="-10" y="37.5" width="35.25" height="25" as="geometry" />
        </mxCell>
        <mxCell id="gw8mgy441jQ1SfUJSTYL-9" value="✗" style="rounded=1;whiteSpace=wrap;html=1;sketch=0;points=[[0,0.5,0,0,0],[1,0.5,0,0,0]];fillColor=#1ba1e2;fontColor=#ffffff;strokeColor=#006EAF;arcSize=50;fontFamily=Helvetica;fontSize=11;opacity=30;textOpacity=30;" vertex="1" parent="gw8mgy441jQ1SfUJSTYL-6">
          <mxGeometry x="220" y="70" width="35.25" height="25" as="geometry" />
        </mxCell>
        <mxCell id="gw8mgy441jQ1SfUJSTYL-7" value="" style="rounded=1;whiteSpace=wrap;html=1;sketch=0;points=[[0,0.5,0,0,0],[1,0.5,0,0,0]];arcSize=50;fontFamily=Helvetica;fontSize=11;fontColor=default;" vertex="1" parent="gw8mgy441jQ1SfUJSTYL-6">
          <mxGeometry x="218" y="30" width="39.25" height="25" as="geometry" />
        </mxCell>
        <mxCell id="gw8mgy441jQ1SfUJSTYL-11" style="edgeStyle=orthogonalEdgeStyle;shape=connector;curved=0;rounded=1;orthogonalLoop=1;jettySize=auto;html=1;exitX=0;exitY=0.5;exitDx=0;exitDy=0;exitPerimeter=0;entryX=1;entryY=0.5;entryDx=0;entryDy=0;entryPerimeter=0;strokeColor=default;strokeWidth=2;align=center;verticalAlign=middle;fontFamily=Helvetica;fontSize=11;fontColor=default;labelBackgroundColor=default;endArrow=classic;" edge="1" parent="1" source="gw8mgy441jQ1SfUJSTYL-3" target="gw8mgy441jQ1SfUJSTYL-7">
          <mxGeometry relative="1" as="geometry" />
        </mxCell>
        <mxCell id="gw8mgy441jQ1SfUJSTYL-13" style="edgeStyle=orthogonalEdgeStyle;shape=connector;curved=0;rounded=1;orthogonalLoop=1;jettySize=auto;html=1;exitX=1;exitY=0.5;exitDx=0;exitDy=0;exitPerimeter=0;entryX=0;entryY=0.5;entryDx=0;entryDy=0;entryPerimeter=0;strokeColor=default;strokeWidth=1;align=center;verticalAlign=middle;fontFamily=Helvetica;fontSize=11;fontColor=default;labelBackgroundColor=default;endArrow=classic;dashed=1;" edge="1" parent="1" source="gw8mgy441jQ1SfUJSTYL-4" target="m3rVj-qdc9ypze6SkFHS-18">
          <mxGeometry relative="1" as="geometry" />
        </mxCell>
        <mxCell id="gw8mgy441jQ1SfUJSTYL-14" style="edgeStyle=orthogonalEdgeStyle;shape=connector;curved=0;rounded=1;orthogonalLoop=1;jettySize=auto;html=1;exitX=1;exitY=0.5;exitDx=0;exitDy=0;exitPerimeter=0;strokeColor=default;strokeWidth=1;align=center;verticalAlign=middle;fontFamily=Helvetica;fontSize=11;fontColor=default;labelBackgroundColor=default;endArrow=classic;entryX=0;entryY=0.5;entryDx=0;entryDy=0;entryPerimeter=0;dashed=1;" edge="1" parent="1" source="gw8mgy441jQ1SfUJSTYL-9" target="m3rVj-qdc9ypze6SkFHS-18">
          <mxGeometry relative="1" as="geometry">
            <mxPoint x="650" y="220" as="targetPoint" />
            <Array as="points">
              <mxPoint x="500" y="13" />
              <mxPoint x="500" y="240" />
            </Array>
          </mxGeometry>
        </mxCell>
        <mxCell id="gw8mgy441jQ1SfUJSTYL-15" style="edgeStyle=orthogonalEdgeStyle;shape=connector;curved=0;rounded=1;orthogonalLoop=1;jettySize=auto;html=1;exitX=1;exitY=0.5;exitDx=0;exitDy=0;exitPerimeter=0;entryX=1;entryY=0.5;entryDx=0;entryDy=0;entryPerimeter=0;strokeColor=default;strokeWidth=2;align=center;verticalAlign=middle;fontFamily=Helvetica;fontSize=11;fontColor=default;labelBackgroundColor=default;endArrow=classic;" edge="1" parent="1" source="m3rVj-qdc9ypze6SkFHS-10" target="gw8mgy441jQ1SfUJSTYL-2">
          <mxGeometry relative="1" as="geometry">
            <Array as="points">
              <mxPoint x="730" y="160" />
              <mxPoint x="730" y="13" />
            </Array>
          </mxGeometry>
        </mxCell>
        <mxCell id="gw8mgy441jQ1SfUJSTYL-17" style="edgeStyle=orthogonalEdgeStyle;shape=connector;curved=0;rounded=1;orthogonalLoop=1;jettySize=auto;html=1;exitX=0;exitY=0.5;exitDx=0;exitDy=0;exitPerimeter=0;entryX=0;entryY=0.5;entryDx=0;entryDy=0;entryPerimeter=0;strokeColor=default;strokeWidth=2;align=center;verticalAlign=middle;fontFamily=Helvetica;fontSize=11;fontColor=default;labelBackgroundColor=default;endArrow=classic;" edge="1" parent="1" source="gw8mgy441jQ1SfUJSTYL-8" target="m3rVj-qdc9ypze6SkFHS-9">
          <mxGeometry relative="1" as="geometry" />
        </mxCell>
        <mxCell id="gw8mgy441jQ1SfUJSTYL-18" value="?A" style="rounded=1;whiteSpace=wrap;html=1;sketch=0;container=1;recursiveResize=0;verticalAlign=bottom;arcSize=6;fontStyle=0;autosize=0;points=[];absoluteArcSize=1;shadow=0;strokeColor=#d79b00;fillColor=#FFFFFF;fontFamily=Helvetica;fontSize=11;dashed=1;opacity=30;align=right;textOpacity=30;gradientColor=#EA6B66;fontColor=default;labelBackgroundColor=default;" vertex="1" parent="1">
          <mxGeometry x="520" y="-160" width="40" height="50" as="geometry">
            <mxRectangle x="-98" y="-1230" width="99" height="26" as="alternateBounds" />
          </mxGeometry>
        </mxCell>
        <mxCell id="gw8mgy441jQ1SfUJSTYL-19" value="" style="rounded=1;whiteSpace=wrap;html=1;sketch=0;points=[[0,0.5,0,0,0],[1,0.5,0,0,0]];arcSize=50;fontFamily=Helvetica;fontSize=11;fontColor=default;dashed=1;textOpacity=50;opacity=30;fontStyle=0;labelBackgroundColor=default;" vertex="1" parent="gw8mgy441jQ1SfUJSTYL-18">
          <mxGeometry x="-12" y="12.5" width="39.25" height="25" as="geometry" />
        </mxCell>
        <mxCell id="gw8mgy441jQ1SfUJSTYL-20" style="edgeStyle=orthogonalEdgeStyle;shape=connector;curved=0;rounded=1;orthogonalLoop=1;jettySize=auto;html=1;exitX=0;exitY=0.5;exitDx=0;exitDy=0;exitPerimeter=0;entryX=0;entryY=0.5;entryDx=0;entryDy=0;entryPerimeter=0;strokeColor=default;strokeWidth=2;align=center;verticalAlign=middle;fontFamily=Helvetica;fontSize=11;fontColor=default;labelBackgroundColor=default;endArrow=classic;" edge="1" parent="1" source="gw8mgy441jQ1SfUJSTYL-3" target="gw8mgy441jQ1SfUJSTYL-19">
          <mxGeometry relative="1" as="geometry" />
        </mxCell>
        <mxCell id="gw8mgy441jQ1SfUJSTYL-22" style="edgeStyle=orthogonalEdgeStyle;shape=connector;curved=0;rounded=1;orthogonalLoop=1;jettySize=auto;html=1;exitX=0;exitY=0.5;exitDx=0;exitDy=0;exitPerimeter=0;entryX=0;entryY=0.5;entryDx=0;entryDy=0;entryPerimeter=0;strokeColor=default;strokeWidth=2;align=center;verticalAlign=middle;fontFamily=Helvetica;fontSize=11;fontColor=default;labelBackgroundColor=default;endArrow=classic;" edge="1" parent="1" source="gw8mgy441jQ1SfUJSTYL-8" target="m3rVj-qdc9ypze6SkFHS-2">
          <mxGeometry relative="1" as="geometry">
            <Array as="points">
              <mxPoint x="170" y="-20" />
              <mxPoint x="170" y="80" />
              <mxPoint x="470" y="80" />
              <mxPoint x="470" y="160" />
            </Array>
          </mxGeometry>
        </mxCell>
      </root>
    </mxGraphModel>
  </diagram>
</mxfile>
